<?xml version="1.0" encoding="utf-8"?>
<!-- Generator: Adobe Illustrator 18.0.0, SVG Export Plug-In . SVG Version: 6.00 Build 0)  -->
<!DOCTYPE svg PUBLIC "-//W3C//DTD SVG 1.1//EN" "http://www.w3.org/Graphics/SVG/1.1/DTD/svg11.dtd">
<svg version="1.1" id="Layer_1" xmlns="http://www.w3.org/2000/svg" xmlns:xlink="http://www.w3.org/1999/xlink" x="0px" y="0px"
	 viewBox="0 0 300 144.5" enable-background="new 0 0 300 144.5" xml:space="preserve">
<g>
	<path d="M201.6,74.5c1.9-0.7,3.8-1.3,5.5-2.1c2.3-1,4.5-2.2,6.1-4.3c1.6-2.1,1.4-4-0.1-6.1c-2.3-3.1-5.6-3.9-9.1-4.2
		c-1.9-0.2-3.9-0.2-5.8-0.4c-0.7-0.1-1.4-0.3-2-0.6c-1-0.4-1.5-1.3-1.4-2.4c0.1-1,0.7-1.7,1.7-1.9c4.1-1.1,7.6-3.3,11.3-5.3
		c2.4-1.3,4.5-3.1,6-5.4c1-1.5,1-2.1-0.6-3.1c-1.3-0.8-2.9-1.7-4.4-1.8c-3.5-0.3-6.9-0.3-10.4-0.2c-2.2,0.1-3,1.4-3.4,3.5
		c-1.8,9.8-1.2,19.7-0.8,29.6c0.1,2.8,0.6,5.5,0.9,8.3c0.2,1.9-0.2,2.9-1.2,2.9c-1.5,0.1-1.9-1.2-2-2.2c-0.5-3.6-1.1-7.3-1.2-11
		c-0.2-7.3-0.1-14.5-0.1-21.8c0-2-0.1-4-0.2-6.1c-1.2,0.2-2.1,0.7-2.8,0.5c-0.8-0.2-1.9-0.9-2.2-1.6c-0.2-0.6,0.3-2,0.9-2.3
		c2.6-1.1,4.9-2.9,7.7-3.2c0.8-0.1,1.7-0.2,2.5-0.3c5.5-1,11-0.8,16.3,1.1c0.8,0.3,1.6,0.8,2.4,1.3c3.4,2.2,3.8,6.9,0.8,9.7
		c-3.5,3.2-7.1,6.3-11.9,8.5c1.1,0.3,1.8,0.6,2.5,0.7c4.3,1.1,8,3.2,10.6,6.9c2,2.9,2,5.8-0.2,8.5c-2.6,3.1-5.6,5.8-9.7,6.9
		c-1.2,0.3-2.6,0.1-3.9,0C201.9,76.6,201.5,75.8,201.6,74.5z"/>
	<path d="M55.9,5.4c-0.4,0.9-1,1.8-1.2,2.8c-1.1,5-1.9,10-2.2,15.1c-0.3,4-1,8-1.4,12.1c-0.4,4.9-0.6,9.9-0.9,15.2
		c1-0.4,1.8-0.5,2.2-0.9c1-1,2-0.7,3-0.1c1.2,0.7,1.2,1.6,0.1,2.2c-1,0.6-2.1,1-3.2,1.4c-0.6,0.2-1.2,0.3-1.8,0.5c0,2.6,0,5.1,0,7.6
		c0,5.9,0.1,11.7-0.2,17.6c-0.1,1.6-1,3.1-1.7,4.6c-0.2,0.4-1.1,0.4-1.6,0.6c-0.2-0.5-0.6-1.2-0.4-1.6c1.2-3.2,0.9-6.5,0.8-9.7
		C47.4,66.7,47.2,60.9,47,55c0-0.3-0.1-0.7-0.2-1.3c-4.1,0.4-8.1,0.8-12.3,1.2c-0.1,0.9-0.2,1.6-0.3,2.3c-0.1,3.1-0.1,6.1-0.2,9.2
		c0,1.3,0.1,2.4,1,3.5c0.9,1.2,0.1,3.2-1.3,3.6c-0.9,0.3-1.5-0.2-1.8-1c-0.5-1.8-1.2-3.6-1.2-5.5c-0.1-4.3,0.1-8.7,0.2-13
		c0.1-2,0.6-2.3,2.8-2c0.7,0.1,1.4-0.2,2-0.2c2.8-0.3,5.7-0.5,8.5-0.8c0.8-0.1,1.6-0.2,2.5-0.4c0.2-2.1,0.3-4.1,0.5-6.1
		c0.6-7.6,1.2-15.2,1.8-22.7c0.5-6.2,1.1-12.5,2.8-18.6c1.3-4.4,4.2-3.9,6.3-1.4c0.5,0.6,1.1,1.4,1.3,2.1c0.4,2.2,0.7,4.4,0.8,6.6
		c0.1,1.2-0.8,2.2-1.8,2.1c-1.3-0.1-1.4-1.1-1.5-2.1c-0.2-1.7-0.4-3.4-0.6-5.1C56.3,5.5,56.1,5.5,55.9,5.4z"/>
	<path d="M76.6,14.2c-1.8-0.7-1.6-2.3-1.8-3.6c-0.3-1.3-0.5-2.5-0.8-4.1c-1.2,1.1-1.5,2.2-1.7,3.3C71,15.3,71.1,21,70.6,26.6
		c-0.8,10.2-1.3,20.3-0.9,30.5c0,0.5,0,1.1,0,1.7c3,0,5.9,0,9.1,0c0-0.9,0-1.7,0-2.5c0-0.9,0-1.8,0.1-2.7c0.1-0.9,0.6-1.6,1.6-1.6
		c1.1-0.1,1.4,0.8,1.5,1.7c0.1,0.8,0.1,1.5,0.1,2.3c-0.1,3.6-0.2,7.1-0.2,10.7c0,1.3,0.2,2.4,1,3.5c1,1.4,0.3,2.8-2,3.9
		c-1.8-1.6-2-3.9-2.2-6c-0.2-2.2,0-4.4,0-6.5c-2.7,0.2-5.4,0.4-8.3,0.5c0,1.5,0,3.1,0,4.7c0,1.3,0.2,2.6,0.2,4
		c0.2,3.1,0.3,6.1,0.5,9.2c0.1,1.1,0,2.3-1.6,2.7C66.5,76,67.2,69,66.7,61.9c-0.9,0-1.6,0.1-2.4,0c-0.9-0.1-1.6-0.5-1.6-1.6
		c0-1.1,0.8-1.3,1.7-1.3c0.6,0,1.2,0,1.9,0c0.1-0.2,0.2-0.4,0.2-0.6c0.4-13.7,0.8-27.4,1.3-41c0.2-4.2,0.9-8.5,1.6-12.6
		c0.7-3.9,2.8-4.4,5.9-2c1.3,1.1,2,2.5,2.3,4.1c0.2,1.4,0.4,2.9,0.6,4.3C78.5,13,78.5,13.2,76.6,14.2z"/>
	<path d="M21.2,34.3c-0.2-1.7-0.5-3.2-0.6-4.7c-0.2-1.5-0.3-3-0.3-4.6c0-0.9,0.4-1.6,1.5-1.7c1.2-0.1,2.1,0.4,2.3,1.6
		c0.3,1.6,0.4,3.3,0.5,5c0.1,1.4,0,2.8,0,4.3c2.1,0.2,3.8,0.4,5.5,0.5c3,0.1,6-0.1,9,0c1.1,0,2.2,0.3,3.3,0.6
		c0.5,0.2,0.8,0.9,1.2,1.3c-0.1,0.2-0.2,0.4-0.3,0.5c-1.8,0.2-3.7,0.4-5.5,0.5c-3.6,0.1-7.2,0.1-10.9,0.2c-0.6,0-1.2,0.1-2,0.3
		c-0.2,2.6-0.5,5.1-0.5,7.6c0,9.1,0,18.2,0.1,27.2c0,4.3,0.2,8.6,0.2,13c0,0.9-0.1,1.8-0.3,2.7c-0.2,0.8-0.6,1.5-1.6,1.3
		c-0.9-0.2-0.9-0.9-0.9-1.6c-0.2-11-0.4-21.9-0.5-32.9c-0.1-4.8,0-9.6,0-14.5c0-0.8-0.1-1.6-0.2-2.6c-0.9-0.1-1.6-0.3-2.4-0.3
		c-2.5,0-5,0.2-7.5,0.2c-2.9,0.1-5.7,0.2-8.6,0.2c-1.8,0-2.8-0.8-2.7-2.2c0.1-1.4,1.1-2.2,2.8-2.2c5.2,0.1,10.3,0.2,15.5,0.3
		C19.1,34.5,20,34.4,21.2,34.3z"/>
	<path d="M238.9,59.9c-1.7,1.5-3.2,2.9-4.8,4.3c-1.6,1.3-3.3,2.5-5.6,2.5c-2.7,0-4.5-1.4-4.8-4c-0.2-1.8,0.2-3.7,0.4-5.6
		c0-0.3,0.3-0.6,0.5-0.9c0.5-0.6,1-1.3,1.9-0.9c0.9,0.4,1.2,1.3,1,2.3c-0.2,0.9-0.6,1.9-0.6,2.8c-0.1,2.7,1.4,3.8,3.8,2.6
		c3.3-1.7,6.2-4.1,8-7.4c0.2-0.4,0.4-0.7,0.6-1.1c0.5-0.9,1.2-1.4,2.2-1.1c1,0.3,1.4,1.3,1.2,2.2c-1.2,4.8-0.6,9.7-0.9,14.6
		c-0.3,6-0.5,12-0.7,18c-0.1,4-0.4,8.1-0.4,12.1c0,4.7,0.6,9.3,2.9,13.6c0.1,0.2,0.2,0.5,0.2,0.8c0.1,0.3,0.1,0.5,0.1,0.8
		c-1.2,0.6-1.8-0.2-2.4-1c-2.5-3.4-3.2-7.2-3.2-11.3c0.1-10,0.4-20,0.5-29.9C238.9,68.8,238.9,64.5,238.9,59.9z"/>
	<path d="M99.9,65.7c-0.9,0.9-1.9,1.7-2.8,2.6c-1.1,1-2.2,1.9-3.8,2.1c-2.1,0.2-3.7-0.7-4.5-2.6c-1.9-4.5,1.1-10.6,5.8-11.9
		c1.2-0.3,2.5-0.5,3.7-0.5c3.4,0.1,5.7,2.5,5.6,5.9c0,1.9-0.2,3.8-0.4,5.6c-0.5,4.3-1.5,8.5,0.6,12.7c-2.1,0.9-3.4,0.5-3.7-1.5
		c-0.4-2.4-0.3-4.8-0.3-7.2c0-1.6,0.2-3.2,0.3-4.9C100.2,65.8,100,65.7,99.9,65.7z M99.3,59.5c-1.2,0-2.1-0.1-3,0
		c-2.5,0.4-4.7,2.5-4.5,4.7c0,0.7,0.5,1.7,1.1,2c0.6,0.3,1.7,0.2,2.2-0.2c1.4-1.2,2.7-2.6,3.9-4C99.4,61.4,99.2,60.4,99.3,59.5z"/>
	<path d="M144.6,72.1c0.7,4.2,4.1,6.6,8.3,5.6c0.6-0.1,1.3-0.2,2,0c-1.1,1.7-2.7,2.3-4.6,2.2c-5.3-0.4-10.2-3.7-9.1-10.9
		c0.8-5.4,3.5-9.8,6.8-13.9c0.8-1,2.1-1.6,3.3-2.1c1.8-0.7,3.1,0.1,3.2,2.1c0,1.3-0.2,2.9-0.8,4c-2,3.6-4.1,7.1-6.3,10.6
		C146.7,70.6,145.6,71.2,144.6,72.1z M151,57.5c-2.9,1.7-4.9,5.3-4.2,7.4C148.4,62.4,150.2,60.3,151,57.5z"/>
	<path d="M278.2,63.3c-0.5,1.3-0.9,2.6-1.6,3.8c-2,3.2-5.1,4.9-8.7,5.6c-0.7,0.1-1.5,0.1-2.3,0c-2.1-0.4-4-1.4-4.6-3.5
		c-0.6-2,0-4.1,1.6-5.8c2.4-2.3,5-4.2,8.3-5c0.5-0.1,0.9-0.2,1.4-0.3C275.5,57.7,278.1,60.1,278.2,63.3z M274.9,62.9
		c-0.2-0.2-0.3-0.4-0.4-0.4c-2.5-0.6-7.8,1.5-9.1,3.6c-0.7,1.2-0.4,1.9,1,2.2C269.9,69.2,273.6,66.8,274.9,62.9z"/>
	<path d="M113,72.7c-2.5,0-3.6-0.8-3.8-2.7c-0.1-1.8,0.1-3.6,0.2-5.4c0.1-1.2,0.9-1.5,1.9-1.6c1.2-0.1,2-0.6,2.9-1.4
		c2-1.9,6.7-2.2,9.1-0.9c1.5,0.8,2.2,2.2,2.5,3.7c0.2,1.5,0.2,3,0.1,4.6c0,0.8-0.4,1.7-1.3,1.6c-0.4-0.1-0.9-0.9-1.1-1.5
		c-0.3-0.6-0.3-1.4-0.4-2c-0.4-1.4-0.8-2.7-2.5-2.9c-1.8-0.2-3.6-0.2-4.7,1.5c-0.7,1.1-1.2,2.3-1.7,3.6
		C113.7,70.3,113.4,71.5,113,72.7z"/>
	<path d="M286.9,72.7c-2.4,0.2-3.6-0.7-3.7-2.7c-0.1-1.8,0.1-3.6,0.2-5.4c0-0.9,0.7-1.4,1.5-1.4c1.5-0.1,2.5-1,3.6-1.8
		c2.7-1.8,5.7-1.9,8.5-0.6c0.9,0.4,1.7,1.4,2.2,2.4c1,1.9,1,4.1,0.5,6.1c-0.1,0.6-0.7,1-1.3,1.9c-0.5-0.9-0.8-1.4-1-1.9
		c-0.2-0.7-0.3-1.4-0.4-2c-0.4-1.5-0.8-2.9-2.6-3.1c-1.9-0.2-3.7-0.1-4.8,1.8c-0.8,1.4-1.3,2.9-1.8,4.4
		C287.4,71,287.1,71.9,286.9,72.7z"/>
	<path d="M251.5,64.9c1-2.2,1.7-4,2.6-5.6c1-2,3-2.9,4.9-3.8c0.6-0.3,1.5-0.1,2.2,0.1c1.1,0.5,1.3,1.8,0.3,2.5
		c-0.8,0.6-1.7,1-2.6,1.3c-2.3,0.9-3.8,2.5-4.4,4.9c-0.6,2.6-1.1,5.3-1.6,8c-0.1,0.5,0,1.2-0.3,1.6c-0.3,0.4-1,0.9-1.4,0.9
		c-0.4,0-1.1-0.6-1.2-1.1c-0.4-1.7-0.8-3.4-0.8-5.1c0-4.8,0.2-9.6,0.3-14.4c0-1,0.1-2.4,1.4-2.3c1.4,0.1,1.2,1.5,1.2,2.5
		c-0.1,2.6-0.4,5.3-0.6,7.9C251.4,63,251.5,63.7,251.5,64.9z"/>
	<path d="M131.1,61.5c0-1.9,0-3.9,0-5.8c0-0.8,0.2-1.7,0.5-2.4c0.2-0.4,0.9-0.8,1.3-0.8c0.5,0.1,1.2,0.6,1.3,1
		c0.3,0.8,0.3,1.8,0.3,2.7c-0.1,3.6-0.2,7.2-0.3,10.8c0,1.2,0.1,2.3,1,3.3c1,1.1-0.2,3.7-1.7,3.6c-0.5,0-1.3-0.7-1.5-1.2
		c-0.5-1.8-1-3.6-1.2-5.5c-0.2-1.9,0-3.9,0-5.8C131,61.5,131.1,61.5,131.1,61.5z"/>
	<path d="M81.2,46.8c-0.9-2.2-0.8-3.9,0.2-4.6c1.1-0.8,2,0,2.8,0.6c0.9,0.6,1.9,1.5,1.3,2.7C84.7,47.3,82.9,46.8,81.2,46.8z"/>
	<path d="M33.6,46.7c-1-1.8-1.1-3.7-0.1-4.5c1-0.8,1.8-0.3,2.7,0.2c1.3,0.9,2.1,2,1.6,2.9C36.9,47,35.2,46.7,33.6,46.7z"/>
	<path d="M133.8,47.6c-0.3-0.4-0.5-0.6-0.6-0.9c-0.6-1.6-0.3-3.2,0.7-3.8c0.9-0.5,3.2,0.5,3.9,1.7c0.6,1,0.2,2.2-0.9,2.5
		C135.9,47.4,134.8,47.4,133.8,47.6z"/>
</g>
<rect x="121.3" y="131" width="57.4" height="2"/>
<g>
	<path d="M93.6,107.9v3.1H92v-8.7h2.8c0.6,0,1.1,0.1,1.5,0.2c0.4,0.1,0.8,0.3,1,0.6c0.3,0.2,0.5,0.5,0.6,0.9
		c0.1,0.3,0.2,0.7,0.2,1.1c0,0.4-0.1,0.8-0.2,1.2c-0.1,0.3-0.4,0.7-0.6,0.9c-0.3,0.3-0.6,0.4-1.1,0.6c-0.4,0.1-0.9,0.2-1.5,0.2H93.6
		z M93.6,106.7h1.2c0.3,0,0.6,0,0.8-0.1c0.2-0.1,0.4-0.2,0.5-0.3s0.3-0.3,0.3-0.5c0.1-0.2,0.1-0.4,0.1-0.7c0-0.2,0-0.4-0.1-0.6
		c-0.1-0.2-0.2-0.3-0.3-0.5c-0.1-0.1-0.3-0.2-0.5-0.3c-0.2-0.1-0.5-0.1-0.8-0.1h-1.2V106.7z"/>
	<path d="M109.2,111h-1.6v-3.8h-4.1v3.8h-1.6v-8.7h1.6v3.7h4.1v-3.7h1.6V111z"/>
	<path d="M121.6,106.7c0,0.6-0.1,1.2-0.3,1.8s-0.5,1-0.9,1.4c-0.4,0.4-0.8,0.7-1.4,0.9c-0.5,0.2-1.1,0.3-1.8,0.3
		c-0.7,0-1.3-0.1-1.8-0.3c-0.5-0.2-1-0.5-1.4-0.9c-0.4-0.4-0.7-0.9-0.9-1.4c-0.2-0.5-0.3-1.1-0.3-1.8s0.1-1.2,0.3-1.8
		c0.2-0.5,0.5-1,0.9-1.4c0.4-0.4,0.8-0.7,1.4-0.9c0.5-0.2,1.1-0.3,1.8-0.3c0.7,0,1.3,0.1,1.8,0.3c0.5,0.2,1,0.5,1.4,0.9
		c0.4,0.4,0.7,0.9,0.9,1.4C121.5,105.4,121.6,106,121.6,106.7z M120,106.7c0-0.5-0.1-0.9-0.2-1.3s-0.3-0.7-0.5-1
		c-0.2-0.3-0.5-0.5-0.9-0.6c-0.3-0.1-0.7-0.2-1.1-0.2c-0.4,0-0.8,0.1-1.1,0.2c-0.3,0.1-0.6,0.3-0.9,0.6s-0.4,0.6-0.5,1
		c-0.1,0.4-0.2,0.8-0.2,1.3c0,0.5,0.1,0.9,0.2,1.3c0.1,0.4,0.3,0.7,0.5,1c0.2,0.3,0.5,0.5,0.9,0.6c0.3,0.1,0.7,0.2,1.1,0.2
		c0.4,0,0.8-0.1,1.1-0.2c0.3-0.1,0.6-0.3,0.9-0.6c0.2-0.3,0.4-0.6,0.5-1S120,107.1,120,106.7z"/>
	<path d="M131,102.3v1.3h-2.6v7.3h-1.6v-7.3h-2.6v-1.3H131z"/>
	<path d="M142.2,106.7c0,0.6-0.1,1.2-0.3,1.8s-0.5,1-0.9,1.4c-0.4,0.4-0.8,0.7-1.4,0.9c-0.5,0.2-1.1,0.3-1.8,0.3
		c-0.7,0-1.3-0.1-1.8-0.3c-0.5-0.2-1-0.5-1.4-0.9c-0.4-0.4-0.7-0.9-0.9-1.4c-0.2-0.5-0.3-1.1-0.3-1.8s0.1-1.2,0.3-1.8
		c0.2-0.5,0.5-1,0.9-1.4c0.4-0.4,0.8-0.7,1.4-0.9c0.5-0.2,1.1-0.3,1.8-0.3c0.7,0,1.3,0.1,1.8,0.3c0.5,0.2,1,0.5,1.4,0.9
		c0.4,0.4,0.7,0.9,0.9,1.4C142.1,105.4,142.2,106,142.2,106.7z M140.6,106.7c0-0.5-0.1-0.9-0.2-1.3s-0.3-0.7-0.5-1
		c-0.2-0.3-0.5-0.5-0.9-0.6c-0.3-0.1-0.7-0.2-1.1-0.2c-0.4,0-0.8,0.1-1.1,0.2c-0.3,0.1-0.6,0.3-0.9,0.6s-0.4,0.6-0.5,1
		c-0.1,0.4-0.2,0.8-0.2,1.3c0,0.5,0.1,0.9,0.2,1.3c0.1,0.4,0.3,0.7,0.5,1c0.2,0.3,0.5,0.5,0.9,0.6c0.3,0.1,0.7,0.2,1.1,0.2
		c0.4,0,0.8-0.1,1.1-0.2c0.3-0.1,0.6-0.3,0.9-0.6c0.2-0.3,0.4-0.6,0.5-1S140.6,107.1,140.6,106.7z"/>
	<path d="M149.9,109.8c0.4,0,0.7,0,1-0.1c0.3-0.1,0.5-0.2,0.8-0.3v-1.6h-1.1c-0.1,0-0.2,0-0.2-0.1c-0.1-0.1-0.1-0.1-0.1-0.2v-0.9
		h2.9v3.5c-0.2,0.2-0.4,0.3-0.7,0.4c-0.2,0.1-0.5,0.2-0.8,0.3s-0.6,0.1-0.9,0.2s-0.6,0.1-1,0.1c-0.6,0-1.2-0.1-1.7-0.3
		c-0.5-0.2-1-0.5-1.4-0.9c-0.4-0.4-0.7-0.9-0.9-1.4c-0.2-0.5-0.3-1.1-0.3-1.8c0-0.7,0.1-1.2,0.3-1.8s0.5-1,0.9-1.4
		c0.4-0.4,0.9-0.7,1.4-0.9c0.6-0.2,1.2-0.3,1.9-0.3c0.7,0,1.3,0.1,1.8,0.3s1,0.5,1.3,0.8l-0.5,0.7c-0.1,0.1-0.2,0.2-0.4,0.2
		c-0.1,0-0.2,0-0.3-0.1c-0.1-0.1-0.3-0.2-0.4-0.2c-0.1-0.1-0.3-0.1-0.4-0.2c-0.2-0.1-0.3-0.1-0.5-0.1c-0.2,0-0.4-0.1-0.7-0.1
		c-0.4,0-0.8,0.1-1.2,0.2c-0.3,0.1-0.6,0.3-0.9,0.6c-0.2,0.3-0.4,0.6-0.6,1c-0.1,0.4-0.2,0.8-0.2,1.3c0,0.5,0.1,0.9,0.2,1.3
		s0.3,0.7,0.6,1c0.3,0.3,0.6,0.5,0.9,0.6C149.1,109.7,149.5,109.8,149.9,109.8z"/>
	<path d="M158.7,107.6v3.4H157v-8.7h2.6c0.6,0,1.1,0.1,1.5,0.2c0.4,0.1,0.8,0.3,1,0.5c0.3,0.2,0.5,0.5,0.6,0.8
		c0.1,0.3,0.2,0.6,0.2,1c0,0.3,0,0.6-0.1,0.8c-0.1,0.3-0.2,0.5-0.4,0.7c-0.2,0.2-0.4,0.4-0.6,0.6c-0.2,0.2-0.5,0.3-0.8,0.4
		c0.2,0.1,0.4,0.3,0.5,0.5l2.2,3.2h-1.5c-0.1,0-0.3,0-0.4-0.1s-0.2-0.1-0.2-0.2l-1.8-2.8c-0.1-0.1-0.1-0.2-0.2-0.2
		c-0.1,0-0.2-0.1-0.4-0.1H158.7z M158.7,106.5h1c0.3,0,0.6,0,0.8-0.1c0.2-0.1,0.4-0.2,0.6-0.3c0.1-0.1,0.3-0.3,0.3-0.5
		c0.1-0.2,0.1-0.4,0.1-0.6c0-0.4-0.1-0.8-0.4-1c-0.3-0.2-0.7-0.4-1.3-0.4h-1V106.5z"/>
	<path d="M174.9,111h-1.2c-0.1,0-0.3,0-0.3-0.1c-0.1-0.1-0.2-0.2-0.2-0.3l-0.6-1.8h-3.6l-0.6,1.8c0,0.1-0.1,0.2-0.2,0.3
		c-0.1,0.1-0.2,0.1-0.3,0.1h-1.3l3.4-8.7h1.7L174.9,111z M169.3,107.7h2.8l-1.1-2.9c0-0.1-0.1-0.3-0.2-0.5s-0.1-0.4-0.2-0.6
		c-0.1,0.2-0.1,0.4-0.2,0.6c-0.1,0.2-0.1,0.3-0.2,0.5L169.3,107.7z"/>
	<path d="M179.8,107.9v3.1h-1.6v-8.7h2.8c0.6,0,1.1,0.1,1.5,0.2c0.4,0.1,0.8,0.3,1,0.6c0.3,0.2,0.5,0.5,0.6,0.9
		c0.1,0.3,0.2,0.7,0.2,1.1c0,0.4-0.1,0.8-0.2,1.2c-0.1,0.3-0.4,0.7-0.6,0.9c-0.3,0.3-0.6,0.4-1.1,0.6c-0.4,0.1-0.9,0.2-1.5,0.2
		H179.8z M179.8,106.7h1.2c0.3,0,0.6,0,0.8-0.1c0.2-0.1,0.4-0.2,0.5-0.3s0.3-0.3,0.3-0.5c0.1-0.2,0.1-0.4,0.1-0.7
		c0-0.2,0-0.4-0.1-0.6c-0.1-0.2-0.2-0.3-0.3-0.5c-0.1-0.1-0.3-0.2-0.5-0.3c-0.2-0.1-0.5-0.1-0.8-0.1h-1.2V106.7z"/>
	<path d="M195.4,111h-1.6v-3.8h-4.1v3.8h-1.6v-8.7h1.6v3.7h4.1v-3.7h1.6V111z"/>
	<path d="M203.4,107.6v3.4h-1.6v-3.4l-3.2-5.3h1.4c0.1,0,0.3,0,0.3,0.1c0.1,0.1,0.2,0.2,0.2,0.3l1.6,2.9c0.1,0.2,0.2,0.3,0.2,0.5
		c0.1,0.2,0.1,0.3,0.2,0.5c0.1-0.2,0.1-0.3,0.2-0.5c0.1-0.2,0.1-0.3,0.2-0.5l1.6-2.9c0-0.1,0.1-0.2,0.2-0.2c0.1-0.1,0.2-0.1,0.3-0.1
		h1.4L203.4,107.6z"/>
</g>
</svg>
